<?xml version="1.0" standalone="no"?><!DOCTYPE svg PUBLIC "-//W3C//DTD SVG 1.1//EN" "http://www.w3.org/Graphics/SVG/1.1/DTD/svg11.dtd"><svg width="200" height="200" viewBox="0 0 200 200" version="1.1" xmlns="http://www.w3.org/2000/svg" xmlns:xlink="http://www.w3.org/1999/xlink"><defs><style type="text/css"><![CDATA[
@font-face { font-family: ifont; src: url("//at.alicdn.com/t/font_1442373896_4754455.eot?#iefix") format("embedded-opentype"), url("//at.alicdn.com/t/font_1442373896_4754455.woff") format("woff"), url("//at.alicdn.com/t/font_1442373896_4754455.ttf") format("truetype"), url("//at.alicdn.com/t/font_1442373896_4754455.svg#ifont") format("svg"); }

]]></style></defs><g class="transform-group"><g transform="scale(0.1953125, 0.1953125)"><path d="M915.003191 1024 106.395458 1024c-58.756556 0-106.396481-47.637973-106.396481-106.394169L-0.001023 109.033275c0-58.765405 47.639925-106.391099 106.396481-106.391099l808.607733 0c58.768836 0 106.398528 47.626717 106.398528 106.391099l0 808.573579C1021.401719 976.362027 973.772027 1024 915.003191 1024L915.003191 1024zM978.842717 109.033275c0-35.253922-28.573926-63.834864-63.839526-63.834864L106.395458 45.198411c-35.254343 0-63.836456 49.861618-63.836456 85.111446l0 787.296997c0 35.251875 28.582113 63.836911 63.836456 63.836911l808.607733 0c35.2656 0 63.839526-28.585035 63.839526-63.836911L978.842717 109.033275 978.842717 109.033275zM794.597074 718.060099M829.367373 499.468592M566.061947 430.027034c-48.045171-12.290931-66.959715 37.154201-19.056789 46.803979l168.737826 28.836769L502.415833 631.230522 194.212031 454.555683l339.588866-183.336562 297.820912 166.231999-107.934574 63.532989L566.061947 430.027034 566.061947 430.027034zM501.093667 687.448918 656.972101 589.392648 694.656896 624.759133 500.096926 748.099253 248.149641 602.962711 289.754882 561.977251 501.093667 687.448918ZM748.409279 490.349911 769.21497 490.349911 769.21497 518.099928 786.561744 518.099928 786.561744 694.915983 769.21497 694.915983 769.21497 712.224184 748.409279 712.224184 748.409279 694.915983 727.607682 694.915983 727.607682 518.099928 748.409279 518.099928 748.409279 490.349911Z" fill="#f397a4"></path></g></g></svg>