<?xml version="1.0" standalone="no"?><!DOCTYPE svg PUBLIC "-//W3C//DTD SVG 1.1//EN" "http://www.w3.org/Graphics/SVG/1.1/DTD/svg11.dtd"><svg width="219.140625" height="200" viewBox="0 0 219.140625 200" version="1.1" xmlns="http://www.w3.org/2000/svg" xmlns:xlink="http://www.w3.org/1999/xlink"><defs><style type="text/css"><![CDATA[
@font-face { font-family: ifont; src: url("//at.alicdn.com/t/font_1442373896_4754455.eot?#iefix") format("embedded-opentype"), url("//at.alicdn.com/t/font_1442373896_4754455.woff") format("woff"), url("//at.alicdn.com/t/font_1442373896_4754455.ttf") format("truetype"), url("//at.alicdn.com/t/font_1442373896_4754455.svg#ifont") format("svg"); }

]]></style></defs><g class="transform-group"><g transform="scale(0.1953125, 0.1953125)"><path d="M2.198036 146.677641l-1.108241-16.882506-1.089821 17.302061 0.491187 7.79043 0 18.251689 0.024559 0.599657c0.010233 0.249687 0.25378 6.132674 0.581238 6.39464 0.007163 0.00614 0.013303 0.008186 0.020466 0.008186 0.321318 0 0.528026-6.009877 0.537236-6.271844l0.020466-0.592494 0-18.215874L2.198036 146.677641 2.198036 146.677641zM1.090819 134.228097l0.822738 12.538571-0.823761 13.1853-0.809435-12.856819L1.090819 134.228097 1.090819 134.228097zM1.54926 171.46314c-0.055259 1.357927-0.223081 4.848425-0.450255 4.680603-0.231267-0.185218-0.419556-3.669576-0.484024-5.033643L0.614981 156.865677l0.474814 7.544837 0.459464-7.354502L1.54926 171.46314 1.54926 171.46314zM1.54926 171.46314M610.010195 67.25373c-246.75187 0-446.783673 200.031802-446.783673 446.783673s200.031802 446.783673 446.783673 446.783673 446.783673-200.031802 446.783673-446.783673S856.761042 67.25373 610.010195 67.25373zM848.69125 602.431615c0 10.468422-7.583722 21.280676-17.396205 30.012547-132.246977 76.609819-296.662607 77.401858-415.611719 7.109931-6.742565-2.693342-11.456936-11.242042-14.167674-19.986193 8.278547-10.208503 13.184277-23.853267 13.184277-38.854936 0-16.683984-5.897314-31.694863-16.58063-42.158169l0-55.70572 204.38904 74.066903c20.24816 7.835456 16.151865 7.882528 36.237319 0.110517l209.946616-77.285201L848.692273 602.431615zM961.42173 392.791991 639.102791 511.220241c-20.084431 7.770987-15.836687 7.719822-36.0828-0.112564l-168.850639-61.231573 188.69357-80.639598c8.278547-3.544733 12.299117-13.598716 8.981559-22.451338l-0.293689-0.782829c-3.321652-8.851599-12.723789-13.152555-21.007453-9.602705l-223.276203 96.471169c-1.270946 0.540306-1.955538 1.131777-2.192945 1.774413-29.42517 24.351618-37.998429 61.989843-39.149649 104.065124 9.993608 6.703679 16.646122 18.584264 16.646122 32.126698 0 12.634762-5.785773 23.821545-14.679327 30.711466 5.039783 78.567403 12.909008 157.563572-51.817156 187.277314-17.73185-6.321986-29.551036-12.639878-52.453652-31.592532 46.299489-59.055001 62.055334-108.895129 67.562768-152.520719-11.585873-6.239098-19.537985-19.060101-19.537985-33.875528 0-16.133446 9.43386-29.9051 22.720468-35.374672 0.461511-42.940998 2.688225-79.969333 37.07029-115.591645l-77.639265-28.1532c-20.24816-7.832386-20.37812-20.485567-0.293689-28.256554l326.749856-118.424156c20.083407-7.769964 15.83464-7.718799 36.078707 0.112564l324.797387 119.388111C981.371085 372.371916 981.507185 385.021004 961.42173 392.791991z" fill="#ffa1b9"></path></g></g></svg>